<mxfile host="www.draw.io" modified="2020-02-20T07:37:23.056Z" agent="Mozilla/5.0 (Windows NT 10.0; Win64; x64) AppleWebKit/537.36 (KHTML, like Gecko) Chrome/80.0.3987.116 Safari/537.36" etag="Bgudqgrgr0nTGgCPrB-N" version="12.7.2" type="github">
  <diagram id="C5RBs43oDa-KdzZeNtuy" name="Page-1">
    <mxGraphModel dx="1422" dy="762" grid="1" gridSize="10" guides="1" tooltips="1" connect="1" arrows="1" fold="1" page="1" pageScale="1" pageWidth="827" pageHeight="1169" math="0" shadow="0">
      <root>
        <mxCell id="WIyWlLk6GJQsqaUBKTNV-0" />
        <mxCell id="WIyWlLk6GJQsqaUBKTNV-1" parent="WIyWlLk6GJQsqaUBKTNV-0" />
        <mxCell id="-r68EjKB7V4uE3vCITL4-14" style="edgeStyle=orthogonalEdgeStyle;rounded=0;orthogonalLoop=1;jettySize=auto;html=1;entryX=0.5;entryY=0;entryDx=0;entryDy=0;" edge="1" parent="WIyWlLk6GJQsqaUBKTNV-1" source="-r68EjKB7V4uE3vCITL4-0" target="-r68EjKB7V4uE3vCITL4-1">
          <mxGeometry relative="1" as="geometry" />
        </mxCell>
        <mxCell id="-r68EjKB7V4uE3vCITL4-0" value="生成配置方案" style="rounded=1;whiteSpace=wrap;html=1;fillColor=#dae8fc;strokeColor=#6c8ebf;" vertex="1" parent="WIyWlLk6GJQsqaUBKTNV-1">
          <mxGeometry x="340" width="120" height="60" as="geometry" />
        </mxCell>
        <mxCell id="-r68EjKB7V4uE3vCITL4-15" style="edgeStyle=orthogonalEdgeStyle;rounded=0;orthogonalLoop=1;jettySize=auto;html=1;" edge="1" parent="WIyWlLk6GJQsqaUBKTNV-1" source="-r68EjKB7V4uE3vCITL4-1" target="-r68EjKB7V4uE3vCITL4-2">
          <mxGeometry relative="1" as="geometry" />
        </mxCell>
        <mxCell id="-r68EjKB7V4uE3vCITL4-1" value="判断订单状态" style="rhombus;whiteSpace=wrap;html=1;" vertex="1" parent="WIyWlLk6GJQsqaUBKTNV-1">
          <mxGeometry x="345" y="110" width="110" height="80" as="geometry" />
        </mxCell>
        <mxCell id="-r68EjKB7V4uE3vCITL4-16" style="edgeStyle=orthogonalEdgeStyle;rounded=0;orthogonalLoop=1;jettySize=auto;html=1;entryX=0.5;entryY=0;entryDx=0;entryDy=0;" edge="1" parent="WIyWlLk6GJQsqaUBKTNV-1" source="-r68EjKB7V4uE3vCITL4-2" target="-r68EjKB7V4uE3vCITL4-3">
          <mxGeometry relative="1" as="geometry" />
        </mxCell>
        <mxCell id="-r68EjKB7V4uE3vCITL4-2" value="判断合同有效性" style="rhombus;whiteSpace=wrap;html=1;" vertex="1" parent="WIyWlLk6GJQsqaUBKTNV-1">
          <mxGeometry x="345" y="240" width="110" height="80" as="geometry" />
        </mxCell>
        <mxCell id="-r68EjKB7V4uE3vCITL4-17" style="edgeStyle=orthogonalEdgeStyle;rounded=0;orthogonalLoop=1;jettySize=auto;html=1;" edge="1" parent="WIyWlLk6GJQsqaUBKTNV-1" source="-r68EjKB7V4uE3vCITL4-3" target="-r68EjKB7V4uE3vCITL4-4">
          <mxGeometry relative="1" as="geometry" />
        </mxCell>
        <mxCell id="-r68EjKB7V4uE3vCITL4-3" value="判断供应商是否为采购" style="rhombus;whiteSpace=wrap;html=1;" vertex="1" parent="WIyWlLk6GJQsqaUBKTNV-1">
          <mxGeometry x="345" y="370" width="110" height="80" as="geometry" />
        </mxCell>
        <mxCell id="-r68EjKB7V4uE3vCITL4-18" style="edgeStyle=orthogonalEdgeStyle;rounded=0;orthogonalLoop=1;jettySize=auto;html=1;entryX=0.5;entryY=0;entryDx=0;entryDy=0;" edge="1" parent="WIyWlLk6GJQsqaUBKTNV-1" source="-r68EjKB7V4uE3vCITL4-4" target="-r68EjKB7V4uE3vCITL4-5">
          <mxGeometry relative="1" as="geometry" />
        </mxCell>
        <mxCell id="-r68EjKB7V4uE3vCITL4-4" value="修改房屋状态" style="rounded=0;whiteSpace=wrap;html=1;" vertex="1" parent="WIyWlLk6GJQsqaUBKTNV-1">
          <mxGeometry x="340" y="500" width="120" height="60" as="geometry" />
        </mxCell>
        <mxCell id="-r68EjKB7V4uE3vCITL4-19" style="edgeStyle=orthogonalEdgeStyle;rounded=0;orthogonalLoop=1;jettySize=auto;html=1;entryX=0.5;entryY=0;entryDx=0;entryDy=0;" edge="1" parent="WIyWlLk6GJQsqaUBKTNV-1" source="-r68EjKB7V4uE3vCITL4-5" target="-r68EjKB7V4uE3vCITL4-6">
          <mxGeometry relative="1" as="geometry" />
        </mxCell>
        <mxCell id="-r68EjKB7V4uE3vCITL4-5" value="生成配置方案编号" style="rounded=0;whiteSpace=wrap;html=1;" vertex="1" parent="WIyWlLk6GJQsqaUBKTNV-1">
          <mxGeometry x="340" y="612" width="120" height="60" as="geometry" />
        </mxCell>
        <mxCell id="-r68EjKB7V4uE3vCITL4-20" style="edgeStyle=orthogonalEdgeStyle;rounded=0;orthogonalLoop=1;jettySize=auto;html=1;entryX=0.5;entryY=0;entryDx=0;entryDy=0;" edge="1" parent="WIyWlLk6GJQsqaUBKTNV-1" source="-r68EjKB7V4uE3vCITL4-6" target="-r68EjKB7V4uE3vCITL4-7">
          <mxGeometry relative="1" as="geometry" />
        </mxCell>
        <mxCell id="-r68EjKB7V4uE3vCITL4-6" value="校验配置方案唯一" style="rhombus;whiteSpace=wrap;html=1;" vertex="1" parent="WIyWlLk6GJQsqaUBKTNV-1">
          <mxGeometry x="345" y="720" width="110" height="80" as="geometry" />
        </mxCell>
        <mxCell id="-r68EjKB7V4uE3vCITL4-21" style="edgeStyle=orthogonalEdgeStyle;rounded=0;orthogonalLoop=1;jettySize=auto;html=1;entryX=0.5;entryY=0;entryDx=0;entryDy=0;" edge="1" parent="WIyWlLk6GJQsqaUBKTNV-1" source="-r68EjKB7V4uE3vCITL4-7" target="-r68EjKB7V4uE3vCITL4-8">
          <mxGeometry relative="1" as="geometry" />
        </mxCell>
        <mxCell id="-r68EjKB7V4uE3vCITL4-7" value="生成配置方案记录" style="rounded=0;whiteSpace=wrap;html=1;" vertex="1" parent="WIyWlLk6GJQsqaUBKTNV-1">
          <mxGeometry x="340" y="855" width="120" height="60" as="geometry" />
        </mxCell>
        <mxCell id="-r68EjKB7V4uE3vCITL4-22" style="edgeStyle=orthogonalEdgeStyle;rounded=0;orthogonalLoop=1;jettySize=auto;html=1;entryX=0.5;entryY=0;entryDx=0;entryDy=0;" edge="1" parent="WIyWlLk6GJQsqaUBKTNV-1" source="-r68EjKB7V4uE3vCITL4-8" target="-r68EjKB7V4uE3vCITL4-9">
          <mxGeometry relative="1" as="geometry" />
        </mxCell>
        <mxCell id="-r68EjKB7V4uE3vCITL4-8" value="保存配置方案选择供应商" style="rounded=0;whiteSpace=wrap;html=1;" vertex="1" parent="WIyWlLk6GJQsqaUBKTNV-1">
          <mxGeometry x="340" y="969" width="120" height="60" as="geometry" />
        </mxCell>
        <mxCell id="-r68EjKB7V4uE3vCITL4-23" style="edgeStyle=orthogonalEdgeStyle;rounded=0;orthogonalLoop=1;jettySize=auto;html=1;" edge="1" parent="WIyWlLk6GJQsqaUBKTNV-1" source="-r68EjKB7V4uE3vCITL4-9" target="-r68EjKB7V4uE3vCITL4-10">
          <mxGeometry relative="1" as="geometry" />
        </mxCell>
        <mxCell id="-r68EjKB7V4uE3vCITL4-9" value="自动带出配置方案物品" style="rounded=0;whiteSpace=wrap;html=1;" vertex="1" parent="WIyWlLk6GJQsqaUBKTNV-1">
          <mxGeometry x="340" y="1083" width="120" height="60" as="geometry" />
        </mxCell>
        <mxCell id="-r68EjKB7V4uE3vCITL4-24" style="edgeStyle=orthogonalEdgeStyle;rounded=0;orthogonalLoop=1;jettySize=auto;html=1;entryX=0.5;entryY=0;entryDx=0;entryDy=0;" edge="1" parent="WIyWlLk6GJQsqaUBKTNV-1" source="-r68EjKB7V4uE3vCITL4-10" target="-r68EjKB7V4uE3vCITL4-11">
          <mxGeometry relative="1" as="geometry" />
        </mxCell>
        <mxCell id="-r68EjKB7V4uE3vCITL4-10" value="更新订单状态" style="rounded=0;whiteSpace=wrap;html=1;" vertex="1" parent="WIyWlLk6GJQsqaUBKTNV-1">
          <mxGeometry x="340" y="1198" width="120" height="60" as="geometry" />
        </mxCell>
        <mxCell id="-r68EjKB7V4uE3vCITL4-25" style="edgeStyle=orthogonalEdgeStyle;rounded=0;orthogonalLoop=1;jettySize=auto;html=1;entryX=0.5;entryY=0;entryDx=0;entryDy=0;" edge="1" parent="WIyWlLk6GJQsqaUBKTNV-1" source="-r68EjKB7V4uE3vCITL4-11" target="-r68EjKB7V4uE3vCITL4-12">
          <mxGeometry relative="1" as="geometry" />
        </mxCell>
        <mxCell id="-r68EjKB7V4uE3vCITL4-11" value="更新订单流程值" style="rounded=0;whiteSpace=wrap;html=1;" vertex="1" parent="WIyWlLk6GJQsqaUBKTNV-1">
          <mxGeometry x="340" y="1310" width="120" height="60" as="geometry" />
        </mxCell>
        <mxCell id="-r68EjKB7V4uE3vCITL4-27" style="edgeStyle=orthogonalEdgeStyle;rounded=0;orthogonalLoop=1;jettySize=auto;html=1;entryX=0.5;entryY=0;entryDx=0;entryDy=0;" edge="1" parent="WIyWlLk6GJQsqaUBKTNV-1" source="-r68EjKB7V4uE3vCITL4-12" target="-r68EjKB7V4uE3vCITL4-13">
          <mxGeometry relative="1" as="geometry" />
        </mxCell>
        <mxCell id="-r68EjKB7V4uE3vCITL4-12" value="更新户型图审核明细" style="rounded=0;whiteSpace=wrap;html=1;" vertex="1" parent="WIyWlLk6GJQsqaUBKTNV-1">
          <mxGeometry x="340" y="1420" width="120" height="60" as="geometry" />
        </mxCell>
        <mxCell id="-r68EjKB7V4uE3vCITL4-13" value="结束" style="rounded=1;whiteSpace=wrap;html=1;fillColor=#f8cecc;strokeColor=#b85450;" vertex="1" parent="WIyWlLk6GJQsqaUBKTNV-1">
          <mxGeometry x="340" y="1530" width="120" height="60" as="geometry" />
        </mxCell>
      </root>
    </mxGraphModel>
  </diagram>
</mxfile>
